Coordinates
nRows=257
nColumns=2
inDegrees=yes
endheader
time	ankle_angle_r	
3.19355	 -5.390548	
3.22681	 -5.325317	
3.26008	 -5.392833	
3.29335	 -5.386353	
3.32661	 -5.345159	
3.35988	 -5.386353	
3.39315	 -5.351059	
3.42641	 -5.350321	
3.45968	 -5.396642	
3.49294	 -5.330383	
3.52621	 -5.335414	
3.55948	 -5.366353	
3.59274	 -5.336029	
3.62601	 -5.310059	
3.65927	 -5.340576	
3.69254	 -5.336609	
3.72581	 -5.346319	
3.75907	 -5.340576	
3.79234	 -5.371094	
3.8256	 -5.319285	
3.85887	 -5.386353	
3.89214	 -5.310059	
3.9254	 -5.318995	
3.95867	 -5.340576	
3.99194	 -5.292573	
4.0252	 -5.333963	
4.05847	 -5.332027	
4.09173	 -5.242218	
4.125	 -5.279541	
4.15827	 -5.310059	
4.19153	 -5.263216	
4.2248	 -5.249023	
4.25806	 -5.286830	
4.29133	 -5.279541	
4.3246	 -5.263989	
4.35786	 -5.294800	
4.39113	 -5.256606	
4.4244	 -5.233478	
4.45766	 -5.263802	
4.49093	 -5.249023	
4.52419	 -5.271478	
4.55746	 -5.294800	
4.59073	 -5.240767	
4.62399	 -5.294800	
4.65726	 -5.279541	
4.69052	 -5.264282	
4.72379	 -5.288184	
4.75706	 -5.355835	
4.79032	 -5.294800	
4.82359	 -5.292192	
4.85685	 -5.316288	
4.89012	 -5.316191	
4.92339	 -5.361870	
4.95665	 -5.380414	
4.98992	 -5.315901	
5.02319	 -5.327295	
5.05645	 -5.375055	
5.08972	 -5.330870	
5.12298	 -5.365638	
5.15625	 -5.380994	
5.18952	 -5.340576	
5.22278	 -5.406777	
5.25605	 -5.411749	
5.28931	 -5.371094	
5.32258	 -5.406487	
5.35585	 -5.395910	
5.38911	 -5.412188	
5.42238	 -5.371094	
5.45565	 -5.390841	
5.48891	 -5.325317	
5.52218	 -5.344872	
5.55544	 -5.329516	
5.58871	 -5.294800	
5.62198	 -5.351830	
5.65524	 -5.325317	
5.68851	 -5.310059	
5.72177	 -5.313774	
5.75504	 -5.328936	
5.78831	 -5.291278	
5.82157	 -5.313484	
5.85484	 -5.306730	
5.8881	 -5.279541	
5.92137	 -5.313194	
5.95464	 -5.340576	
5.9879	 -5.297741	
6.02117	 -5.310059	
6.05444	 -5.279541	
6.0877	 -5.307407	
6.12097	 -5.312613	
6.15423	 -5.343034	
6.1875	 -5.310059	
6.22077	 -5.353570	
6.25403	 -5.384184	
6.2873	 -5.351692	
6.32056	 -5.369119	
6.35383	 -5.384474	
6.3871	 -5.371094	
6.42036	 -5.413501	
6.45363	 -5.430541	
6.4869	 -5.371094	
6.52016	 -5.386353	
6.55343	 -5.385055	
6.58669	 -5.357036	
6.61996	 -5.428815	
6.65323	 -5.384337	
6.68649	 -5.326229	
6.71976	 -5.356649	
6.75302	 -5.371811	
6.78629	 -5.354593	
6.81956	 -5.340576	
6.85282	 -5.400756	
6.88609	 -5.310721	
6.91935	 -5.356304	
6.95262	 -5.355559	
6.98589	 -5.309936	
7.01915	 -5.325262	
7.05242	 -5.279846	
7.08569	 -5.279790	
7.11895	 -5.310750	
7.15222	 -5.309616	
7.18548	 -5.294800	
7.21875	 -5.309423	
7.25202	 -5.278076	
7.28528	 -5.265111	
7.31855	 -5.293874	
7.35181	 -5.293777	
7.38508	 -5.280660	
7.41835	 -5.293584	
7.45161	 -5.293487	
7.48488	 -5.265691	
7.51815	 -5.279541	
7.55141	 -5.249023	
7.58468	 -5.262583	
7.61794	 -5.298392	
7.65121	 -5.275755	
7.68448	 -5.266272	
7.71774	 -5.310059	
7.75101	 -5.251206	
7.78427	 -5.310059	
7.81754	 -5.286669	
7.85081	 -5.297273	
7.88407	 -5.343146	
7.91734	 -5.307393	
7.9506	 -5.325317	
7.98387	 -5.297659	
8.01714	 -5.325317	
8.0504	 -5.340576	
8.08367	 -5.316358	
8.11694	 -5.359081	
8.1502	 -5.294800	
8.18347	 -5.355835	
8.21673	 -5.340576	
8.25	 -5.325317	
8.28327	 -5.317858	
8.31653	 -5.340576	
8.3498	 -5.329240	
8.38306	 -5.314078	
8.41633	 -5.397495	
8.4496	 -5.314272	
8.48286	 -5.329627	
8.51613	 -5.371094	
8.5494	 -5.316311	
8.58266	 -5.331377	
8.61593	 -5.380487	
8.64919	 -5.314852	
8.68246	 -5.335686	
8.71573	 -5.350848	
8.74899	 -5.340576	
8.78226	 -5.391251	
8.81552	 -5.361112	
8.84879	 -5.360347	
8.88206	 -5.349214	
8.91532	 -5.346143	
8.94859	 -5.334913	
8.98185	 -5.380592	
9.01512	 -5.376951	
9.04839	 -5.316012	
9.08165	 -5.374252	
9.11492	 -5.386353	
9.14819	 -5.362079	
9.18145	 -5.371094	
9.21472	 -5.364657	
9.24798	 -5.371094	
9.28125	 -5.410240	
9.31452	 -5.379625	
9.34778	 -5.325317	
9.38105	 -5.394691	
9.41431	 -5.386353	
9.44758	 -5.355835	
9.48085	 -5.339738	
9.51411	 -5.371738	
9.54738	 -5.341027	
9.58065	 -5.363593	
9.61391	 -5.386353	
9.64718	 -5.355835	
9.68044	 -5.371416	
9.71371	 -5.370578	
9.74698	 -5.363819	
9.78024	 -5.387255	
9.81351	 -5.340576	
9.84677	 -5.378078	
9.88004	 -5.371094	
9.91331	 -5.318526	
9.94657	 -5.310059	
9.97984	 -5.349237	
10.0131	 -5.325317	
10.0464	 -5.294800	
10.0796	 -5.292157	
10.1129	 -5.316270	
10.1462	 -5.279541	
10.1794	 -5.294800	
10.2127	 -5.319396	
10.246	 -5.264282	
10.2792	 -5.304331	
10.3125	 -5.325317	
10.3458	 -5.279541	
10.379	 -5.305676	
10.4123	 -5.289459	
10.4456	 -5.289556	
10.4788	 -5.299948	
10.5121	 -5.300062	
10.5454	 -5.264282	
10.5786	 -5.305201	
10.6119	 -5.300537	
10.6452	 -5.270212	
10.6784	 -5.336009	
10.7117	 -5.310059	
10.745	 -5.305684	
10.7782	 -5.362538	
10.8115	 -5.347473	
10.8448	 -5.340576	
10.878	 -5.393636	
10.9113	 -5.325317	
10.9446	 -5.325317	
10.9778	 -5.367396	
11.0111	 -5.298400	
11.0444	 -5.344080	
11.0776	 -5.382945	
11.1109	 -5.288178	
11.1442	 -5.383139	
11.1774	 -5.371094	
11.2107	 -5.343597	
11.244	 -5.343500	
11.2772	 -5.355835	
11.3105	 -5.307328	
11.3437	 -5.279541	
11.377	 -5.327855	
11.4103	 -5.327758	
11.4435	 -5.322973	
11.4768	 -5.294800	
11.5101	 -5.262132	
11.5433	 -5.262228	
11.5766	 -5.292843	
11.6099	 -5.262422	
11.6431	 -5.266046	
11.6764	 -5.294800	
11.7097	 -5.277971	
